<svg width="512" height="512" viewBox="0 0 512 512" fill="none" xmlns="http://www.w3.org/2000/svg">
<g clip-path="url(#clip0)">
<rect width="512" height="512" rx="50" fill="#343A40"/>
<path d="M366.5 309C352.5 323 335.833 333.833 316.5 341.5C297.5 349.167 278.5 353 259.5 353C240.5 353 227.667 351.333 221 348L205.5 433L104 443L173 88L254.5 79.5L248 114C262 90.3333 283.5 78.5 312.5 78.5C345.167 78.5 370.167 89 387.5 110C402.833 129 410.5 153 410.5 182C410.5 211 406.667 235.833 399 256.5C391.333 277.167 380.5 294.667 366.5 309ZM227 315C234 321 241.833 324 250.5 324C259.167 324 266 322.333 271 319C276 315.667 280.333 310.667 284 304C294 286 303 249.667 311 195C313.333 179 314.5 163.167 314.5 147.5C314.5 131.833 312.667 121.5 309 116.5C305.667 111.5 300.667 109 294 109C273.667 109 260.167 128.833 253.5 168.5L227 315Z" fill="white"/>
</g>
<defs>
<clipPath id="clip0">
<rect width="512" height="512" fill="white"/>
</clipPath>
</defs>
</svg>
